<?xml version="1.0" standalone="no"?>
<!DOCTYPE svg PUBLIC "-//W3C//DTD SVG 20010904//EN"
 "http://www.w3.org/TR/2001/REC-SVG-20010904/DTD/svg10.dtd">
<svg version="1.0" xmlns="http://www.w3.org/2000/svg"
 width="183.000000pt" height="183.000000pt" viewBox="0 0 183.000000 183.000000"
 preserveAspectRatio="xMidYMid meet">
<metadata>
Created by potrace 1.14, written by Peter Selinger 2001-2017
</metadata>
<g transform="translate(0.000000,183.000000) scale(0.100000,-0.100000)"
fill="#000000" stroke="none">
<path d="M1 926 c0 -279 3 -375 12 -378 16 -6 102 -2 147 6 67 11 94 17 102
22 5 3 19 7 32 10 39 7 176 83 251 139 38 29 147 131 240 225 170 171 245 230
297 230 68 0 116 -57 104 -123 -7 -39 -46 -77 -77 -77 -14 0 -19 -8 -20 -27
-1 -16 -2 -37 -3 -48 -2 -37 12 -55 37 -46 12 5 24 8 27 8 19 -2 86 42 107 69
76 100 69 212 -17 296 -117 113 -245 87 -429 -88 l-99 -95 -17 58 c-9 32 -26
88 -37 126 l-20 67 -57 0 -57 0 -74 -247 c-41 -137 -75 -250 -76 -253 -9 -48
-19 -60 -73 -83 -62 -27 -168 -54 -177 -45 -3 3 -6 145 -7 314 l-2 309 -57 3
-57 3 0 -375z m577 -17 c-23 -21 -46 -35 -50 -31 -7 7 19 101 44 162 11 24 12
22 29 -33 l19 -59 -42 -39z"/>
<path d="M1395 1288 c-3 -7 -4 -177 -3 -378 l3 -364 113 -1 c143 -1 191 14
253 75 80 80 90 193 24 290 -31 46 -33 52 -20 77 50 103 -1 239 -107 288 -40
18 -68 23 -154 24 -78 2 -106 -1 -109 -11z m233 -133 c17 -14 33 -39 37 -55 9
-43 -20 -97 -64 -118 -32 -15 -36 -21 -37 -57 -1 -61 9 -76 48 -64 50 14 57
12 78 -23 30 -49 26 -92 -12 -133 -29 -31 -40 -36 -88 -39 -30 -2 -61 -1 -67
2 -10 3 -13 64 -13 258 l0 254 44 0 c33 0 52 -7 74 -25z"/>
<path d="M965 1086 l-50 -44 -1 -238 c0 -132 3 -244 7 -249 5 -7 54 -10 126
-9 137 2 186 18 244 80 64 68 78 163 38 248 -12 26 -24 48 -28 50 -3 2 -26
-13 -50 -35 -42 -36 -44 -39 -32 -63 26 -49 13 -104 -34 -139 -24 -17 -124
-30 -143 -18 -5 3 -9 94 -10 211 0 252 0 250 -10 250 -4 0 -30 -20 -57 -44z"/>
<path d="M711 834 l-44 -44 22 -68 c11 -37 21 -73 21 -79 0 -6 8 -31 19 -55
18 -43 19 -44 69 -43 28 0 53 3 57 6 5 6 -18 94 -60 224 -9 28 -18 59 -20 69
-8 36 -20 35 -64 -10z"/>
<path d="M395 600 c-3 -5 -24 -15 -45 -21 -57 -17 -51 -35 12 -34 45 0 54 3
65 24 6 14 10 29 7 33 -7 11 -32 10 -39 -2z"/>
</g>
</svg>
